<svg width="435" height="412" viewBox="0 0 435 412" fill="#ce6565" xmlns="http://www.w3.org/2000/svg">
<path d="M373.641 326.948C372.387 332.064 366.791 336.322 356.626 339.272C346.584 342.187 332.625 343.658 315.691 343.636C281.849 343.592 236.474 337.587 187.609 325.605C138.744 313.623 95.7375 297.956 65.7137 282.339C50.6911 274.525 38.9956 266.763 31.4414 259.534C23.7943 252.216 20.8026 245.852 22.0572 240.736C23.3118 235.62 28.9077 231.362 39.0727 228.412C49.1143 225.497 63.074 224.026 80.0072 224.048C113.85 224.092 159.225 230.097 208.09 242.079C256.955 254.061 299.961 269.728 329.985 285.345C345.008 293.159 356.703 300.921 364.257 308.15C371.904 315.468 374.896 321.831 373.641 326.948Z" stroke="#5F4483" stroke-width="3"/>
<path d="M258.442 61.7429L299.966 301.052C300.767 305.67 296.566 309.593 292.014 308.476L102.97 262.121C98.4181 261.005 96.5078 255.584 99.3546 251.86L246.874 58.9063C250.317 54.4027 257.473 56.1574 258.442 61.7429Z" stroke="#6A3F75" stroke-width="3"/>
</svg>
